<svg xmlns="http://www.w3.org/2000/svg" viewBox="0 0 200 200" width="200" height="200">
  <defs>
    <linearGradient id="rg" x1="0" y1="0" x2="1" y2="1">
      <stop offset="0" stop-color="#c98f7c"/>
      <stop offset="0.5" stop-color="#b76e5b"/>
      <stop offset="1" stop-color="#9a5645"/>
    </linearGradient>
  </defs>
  <circle cx="100" cy="100" r="94" fill="none" stroke="url(#rg)" stroke-width="2"/>
  <circle cx="100" cy="100" r="86" fill="none" stroke="url(#rg)" stroke-width="1"/>
  <g fill="none" stroke="url(#rg)" stroke-width="1.6" stroke-linecap="round" stroke-linejoin="round">
    <path d="M100 46 c-3 0 -5 2 -5 5 c0 3 2 5 5 5"/>
    <path d="M82 70 c0 -10 8 -16 18 -16 c10 0 18 6 18 16 c0 8 -4 16 -6 28 c-2 12 -3 22 -12 22 c-9 0 -10 -10 -12 -22 c-2 -12 -6 -20 -6 -28z"/>
    <circle cx="100" cy="86" r="12"/>
    <path d="M100 74 c6 4 6 14 0 18 c-6 -4 -6 -14 0 -18z"/>
    <path d="M100 120 l0 30 M86 150 l28 0"/>
  </g>
  <text x="100" y="140" text-anchor="middle" font-family="Georgia, serif" font-size="26" letter-spacing="3" fill="url(#rg)">MILY</text>
  <text x="100" y="162" text-anchor="middle" font-family="Georgia, serif" font-size="26" letter-spacing="3" fill="url(#rg)">SHOP</text>
  <text x="100" y="178" text-anchor="middle" font-family="Georgia, serif" font-size="7" letter-spacing="2" fill="url(#rg)">FINE APPAREL &amp; DESIGN</text>
</svg>
